<?xml version="1.0" encoding="UTF-8"?>
<svg version="1.1" xmlns="http://www.w3.org/2000/svg" width="75" height="81">
<path d="M0 0 C24.75 0 49.5 0 75 0 C75 26.73 75 53.46 75 81 C50.25 81 25.5 81 0 81 C0 54.27 0 27.54 0 0 Z " fill="#0A223F" transform="translate(0,0)"/>
<path d="M0 0 C24.75 0 49.5 0 75 0 C75 26.73 75 53.46 75 81 C50.25 81 25.5 81 0 81 C0 54.27 0 27.54 0 0 Z M11.5 11.625 C6.37114576 17.28550377 5.54838298 23.53012355 5.75 30.8125 C5.76313232 31.63202148 5.77626465 32.45154297 5.78979492 33.29589844 C5.84018097 35.86484959 5.91766072 38.43189136 6 41 C6.02078613 41.83257324 6.04157227 42.66514648 6.06298828 43.52294922 C6.12722653 45.93307296 6.21469915 48.3410238 6.3125 50.75 C6.33473633 51.47550049 6.35697266 52.20100098 6.37988281 52.94848633 C6.64054038 57.99432369 7.69731093 61.57906055 10 66 C12.39224959 67.73538192 12.39224959 67.73538192 15 69 C15.57145752 69.67828857 16.14291504 70.35657715 16.73168945 71.05541992 C19.83991181 73.72004064 21.80313479 73.47419847 25.85546875 73.42578125 C26.51654129 73.42249313 27.17761383 73.41920502 27.85871887 73.41581726 C29.96898417 73.40011272 32.07764838 73.35615876 34.1875 73.3125 C35.58657535 73.30099898 36.98566595 73.29121667 38.38476562 73.28320312 C51.00418049 73.89544992 51.00418049 73.89544992 62.375 69.8125 C68.76297713 62.96823879 68.74661356 55.8960675 69 47 C69.04882324 45.606604 69.04882324 45.606604 69.09863281 44.18505859 C69.19771749 41.06088862 69.25977811 37.93777653 69.3125 34.8125 C69.34239014 33.81557129 69.37228027 32.81864258 69.40307617 31.79150391 C69.45914636 24.48308685 67.90336699 18.69029607 65 12 C64.34 12 63.68 12 63 12 C63 11.34 63 10.68 63 10 C55.56676492 7.63445475 48.43994735 7.73753995 40.6875 7.8125 C39.43259766 7.81314453 38.17769531 7.81378906 36.88476562 7.81445312 C23.39204169 6.96252754 23.39204169 6.96252754 11.5 11.625 Z " fill="#01102A" transform="translate(0,0)"/>
<path d="M0 0 C-0.33 4.29 -0.66 8.58 -1 13 C-3.475 12.505 -3.475 12.505 -6 12 C-7.43852875 13.74915445 -8.87578198 15.49935795 -10.3125 17.25 C-11.11300781 18.22453125 -11.91351563 19.1990625 -12.73828125 20.203125 C-14.54442258 22.4366262 -16.29819915 24.68687263 -18 27 C-18.5775 26.835 -19.155 26.67 -19.75 26.5 C-22.26664369 25.85537969 -22.26664369 25.85537969 -26 26 C-28.42934162 28.72086261 -30.46600371 31.62734089 -32.5859375 34.59375 C-35 37 -35 37 -38.2890625 37.34375 C-39.18367188 37.2303125 -40.07828125 37.116875 -41 37 C-37.86427316 32.17580486 -34.4851448 27.57715684 -31 23 C-31.99 23 -32.98 23 -34 23 C-34.33 23.99 -34.66 24.98 -35 26 C-35 18.74 -35 11.48 -35 4 C-27 4 -27 4 -24.6875 6.1171875 C-24.130625 7.02726562 -23.57375 7.93734375 -23 8.875 C-22.4225 9.77992187 -21.845 10.68484375 -21.25 11.6171875 C-20 14 -20 14 -20 16 C-18.68 16 -17.36 16 -16 16 C-15.731875 15.443125 -15.46375 14.88625 -15.1875 14.3125 C-13.89877353 11.80287477 -12.47073522 9.40665764 -11 7 C-11.66 6.67 -12.32 6.34 -13 6 C-13 5.34 -13 4.68 -13 4 C-11.2097939 3.32942113 -9.41778511 2.6636531 -7.625 2 C-6.62726562 1.62875 -5.62953125 1.2575 -4.6015625 0.875 C-2 0 -2 0 0 0 Z " fill="#CDBA7D" transform="translate(58,20)"/>
<path d="M0 0 C24.08717543 -0.42967679 24.08717543 -0.42967679 33.0546875 5.70703125 C35.75518939 8.40009374 36.4368636 10.60090729 36.69970703 14.42089844 C36.6892334 15.69868164 36.67875977 16.97646484 36.66796875 18.29296875 C36.66513885 18.97538635 36.66230896 19.65780396 36.65939331 20.36090088 C36.64823723 22.53114682 36.62314182 24.70097346 36.59765625 26.87109375 C36.58762051 28.34634819 36.57849569 29.82160912 36.5703125 31.296875 C36.54831312 34.90508317 36.51381508 38.5130475 36.47265625 42.12109375 C36.14265625 42.12109375 35.81265625 42.12109375 35.47265625 42.12109375 C35.46331055 41.23848877 35.45396484 40.35588379 35.44433594 39.4465332 C35.40019511 36.15652703 35.33852949 32.86780301 35.26513672 29.57836914 C35.23699611 28.15759183 35.21574717 26.73665997 35.20166016 25.31567383 C35.18013231 23.26694016 35.13344111 21.22005075 35.08203125 19.171875 C35.06108398 17.94122314 35.04013672 16.71057129 35.01855469 15.44262695 C34.3760372 11.53321263 33.31164088 9.8489561 30.47265625 7.12109375 C27.28013908 6.43388525 24.70683001 6.18368004 21.47265625 6.12109375 C20.27463379 6.09499023 19.07661133 6.06888672 17.84228516 6.04199219 C14.37832241 5.98686733 10.91574736 5.98048597 7.45141602 5.99072266 C5.27938949 5.99610805 3.10756734 5.99073667 0.93554688 5.984375 C-0.46224003 5.98503544 -1.86002682 5.9863159 -3.2578125 5.98828125 C-4.50973389 5.98940918 -5.76165527 5.99053711 -7.05151367 5.99169922 C-10.3014217 6.11268336 -13.33807367 6.5050786 -16.52734375 7.12109375 C-18.58814123 17.04488704 -18.94836763 26.78277492 -19.15234375 36.87109375 C-19.19062973 38.45444605 -19.22968713 40.03777989 -19.26953125 41.62109375 C-19.36434396 45.45427286 -19.44878226 49.28754856 -19.52734375 53.12109375 C-22.14701321 49.19158956 -21.83305137 45.81474208 -21.828125 41.25390625 C-21.83241013 40.38216766 -21.83669525 39.51042908 -21.84111023 38.61227417 C-21.84685286 36.76805489 -21.84735428 34.92381296 -21.84301758 33.07958984 C-21.83986336 30.26360179 -21.86329713 27.4486702 -21.88867188 24.6328125 C-21.89094551 22.83984507 -21.89164807 21.04687483 -21.890625 19.25390625 C-21.89983475 18.41417267 -21.90904449 17.57443909 -21.91853333 16.70925903 C-21.88124687 11.97559673 -21.48796718 9.02166336 -18.52734375 5.12109375 C-18.03234375 4.37859375 -17.53734375 3.63609375 -17.02734375 2.87109375 C-12.09197919 -0.58366144 -5.83517243 0.20032153 0 0 Z " fill="#103657" transform="translate(29.52734375,7.87890625)"/>
<path d="M0 0 C0.66 0.33 1.32 0.66 2 1 C2.02887236 4.81248426 2.04675492 8.6249407 2.0625 12.4375 C2.07087891 13.52611328 2.07925781 14.61472656 2.08789062 15.73632812 C2.09272461 17.28803711 2.09272461 17.28803711 2.09765625 18.87109375 C2.10551147 20.30859985 2.10551147 20.30859985 2.11352539 21.77514648 C2 24 2 24 1 25 C-2.375 25.3125 -2.375 25.3125 -6 25 C-7.9375 23.125 -7.9375 23.125 -9 21 C-9 20.34 -9 19.68 -9 19 C-9.66 19 -10.32 19 -11 19 C-11 20.32 -11 21.64 -11 23 C-11.99 23 -12.98 23 -14 23 C-14 22.34 -14 21.68 -14 21 C-14.66 21 -15.32 21 -16 21 C-16.33 21.99 -16.66 22.98 -17 24 C-18.32 24 -19.64 24 -21 24 C-22.67225729 24.30404678 -24.34080104 24.63128912 -26 25 C-25.01 24.67 -24.02 24.34 -23 24 C-23.99 23.34 -24.98 22.68 -26 22 C-23.36 18.7 -20.72 15.4 -18 12 C-16.68 12.66 -15.36 13.32 -14 14 C-11.05149588 14.3447033 -11.05149588 14.3447033 -9.6496582 12.71484375 C-9.20452881 12.12832031 -8.75939941 11.54179688 -8.30078125 10.9375 C-7.57084961 9.99003906 -7.57084961 9.99003906 -6.82617188 9.0234375 C-6.32666016 8.35570312 -5.82714844 7.68796875 -5.3125 7 C-4.80138672 6.33226562 -4.29027344 5.66453125 -3.76367188 4.9765625 C-2.5007144 3.32409478 -1.24925765 1.6628489 0 0 Z " fill="#1E4E77" transform="translate(51,32)"/>
<path d="M0 0 C8 0 8 0 10.3125 2.1171875 C10.869375 3.02726562 11.42625 3.93734375 12 4.875 C12.5775 5.77992187 13.155 6.68484375 13.75 7.6171875 C15 10 15 10 15 12 C15.99 12.33 16.98 12.66 18 13 C17.01 14.485 17.01 14.485 16 16 C14 16 14 16 12.375 14.5 C11.92125 14.005 11.4675 13.51 11 13 C10.278125 13.99 9.55625 14.98 8.8125 16 C6.3904877 18.94793497 6.3904877 18.94793497 3.1875 19.375 C2.465625 19.25125 1.74375 19.1275 1 19 C0.67 19.99 0.34 20.98 0 22 C0 14.74 0 7.48 0 0 Z " fill="#386F92" transform="translate(23,24)"/>
<path d="M0 0 C0.89014801 -0.0038269 1.78029602 -0.00765381 2.69741821 -0.01159668 C4.57856376 -0.01431572 6.45974711 -0.00695503 8.34082031 0.00976562 C11.20985023 0.03112558 14.07636168 0.00999063 16.9453125 -0.015625 C18.77604717 -0.01298073 20.60678027 -0.00785371 22.4375 0 C23.29080902 -0.00809692 24.14411804 -0.01619385 25.02328491 -0.02453613 C30.41172077 0.05960252 33.64082915 0.85141759 37.8515625 4.53125 C40.45126531 7.9683347 40.08126679 11.50732681 40.046875 15.703125 C40.0440451 16.3855426 40.04121521 17.06796021 40.03829956 17.77105713 C40.02714348 19.94130307 40.00204807 22.11112971 39.9765625 24.28125 C39.96652676 25.75650444 39.95740194 27.23176537 39.94921875 28.70703125 C39.92721937 32.31523942 39.89272133 35.92320375 39.8515625 39.53125 C39.5215625 39.53125 39.1915625 39.53125 38.8515625 39.53125 C38.8422168 38.64864502 38.83287109 37.76604004 38.82324219 36.85668945 C38.77910136 33.56668328 38.71743574 30.27795926 38.64404297 26.98852539 C38.61590236 25.56774808 38.59465342 24.14681622 38.58056641 22.72583008 C38.55903856 20.67709641 38.51234736 18.630207 38.4609375 16.58203125 C38.43999023 15.35137939 38.41904297 14.12072754 38.39746094 12.8527832 C37.75494345 8.94336888 36.69054713 7.25911235 33.8515625 4.53125 C30.65904533 3.8440415 28.08573626 3.59383629 24.8515625 3.53125 C23.65354004 3.50514648 22.45551758 3.47904297 21.22119141 3.45214844 C17.75722866 3.39702358 14.29465361 3.39064222 10.83032227 3.40087891 C8.65829574 3.4062643 6.48647359 3.40089292 4.31445312 3.39453125 C2.91666622 3.39519169 1.51887943 3.39647215 0.12109375 3.3984375 C-1.13082764 3.39956543 -2.38274902 3.40069336 -3.67260742 3.40185547 C-6.92251545 3.52283961 -9.95916742 3.91523485 -13.1484375 4.53125 C-9.51748002 -0.46891983 -5.6912469 -0.0537484 0 0 Z " fill="#357799" transform="translate(26.1484375,10.46875)"/>
<path d="M0 0 C1.32 0.66 2.64 1.32 4 2 C5.32 2 6.64 2 8 2 C7.67 4.97 7.34 7.94 7 11 C6.01 11 5.02 11 4 11 C4 10.34 4 9.68 4 9 C3.34 9 2.68 9 2 9 C1.67 9.99 1.34 10.98 1 12 C-0.32 12 -1.64 12 -3 12 C-4.67225729 12.30404678 -6.34080104 12.63128912 -8 13 C-7.01 12.67 -6.02 12.34 -5 12 C-5.99 11.34 -6.98 10.68 -8 10 C-5.36 6.7 -2.72 3.4 0 0 Z " fill="#142841" transform="translate(33,44)"/>
<path d="M0 0 C3.36591866 1.44253657 5.51047079 3.33264727 8 6 C5.42143135 6.92091738 4.4056713 7.18506902 1.859375 6.0234375 C1.24578125 5.68570313 0.6321875 5.34796875 0 5 C-0.97839844 6.299375 -0.97839844 6.299375 -1.9765625 7.625 C-2.858407 8.75075894 -3.74127363 9.87571774 -4.625 11 C-5.26501953 11.85851562 -5.26501953 11.85851562 -5.91796875 12.734375 C-7.2265625 14.375 -7.2265625 14.375 -10 17 C-13.3359375 17.375 -13.3359375 17.375 -16 17 C-13.36113346 12.7973607 -10.63559661 9.43361902 -7 6 C-7 6.66 -7 7.32 -7 8 C-4.35247996 5.42215154 -2.05567935 3.08351902 0 0 Z " fill="#997B45" transform="translate(33,40)"/>
<path d="M0 0 C8 0 8 0 9.875 1.6796875 C10.431875 2.76636719 10.431875 2.76636719 11 3.875 C11.391875 4.59429688 11.78375 5.31359375 12.1875 6.0546875 C13 8 13 8 13 10 C9.47808373 9.73911731 8.78724732 8.75685408 6.375 6 C5.59125 5.01 4.8075 4.02 4 3 C3.34 2.67 2.68 2.34 2 2 C1.67 2.66 1.34 3.32 1 4 C1.66 4 2.32 4 3 4 C3 7.96 3 11.92 3 16 C2.01 16 1.02 16 0 16 C0 10.72 0 5.44 0 0 Z " fill="#4B87AA" transform="translate(23,24)"/>
<path d="M0 0 C0 3.63 0 7.26 0 11 C-0.99 11.33 -1.98 11.66 -3 12 C-3.66 11.67 -4.32 11.34 -5 11 C-5.33 11.66 -5.66 12.32 -6 13 C-6.99 13 -7.98 13 -9 13 C-9.33 11.35 -9.66 9.7 -10 8 C-9.01 8 -8.02 8 -7 8 C-6.62875 6.576875 -6.62875 6.576875 -6.25 5.125 C-5 2 -5 2 -2.9375 0.625 C-1 0 -1 0 0 0 Z " fill="#377296" transform="translate(52,37)"/>
<path d="M0 0 C-1.74775502 2.08525254 -3.49810427 4.16823077 -5.25 6.25 C-5.74113281 6.83652344 -6.23226562 7.42304688 -6.73828125 8.02734375 C-9.37497032 11.15621479 -12.0470322 14.15952621 -15 17 C-13.85814266 12.52040582 -12.56984833 8.85477249 -10 5 C-10.66 4.67 -11.32 4.34 -12 4 C-12 3.34 -12 2.68 -12 2 C-10.56656 1.46809459 -9.12804633 0.94984742 -7.6875 0.4375 C-6.48673828 0.00244141 -6.48673828 0.00244141 -5.26171875 -0.44140625 C-3 -1 -3 -1 0 0 Z " fill="#C9BA81" transform="translate(57,22)"/>
<path d="M0 0 C3.70488006 4.52286243 4.48638163 7.57391157 4.390625 13.3671875 C4.38496521 14.04677521 4.37930542 14.72636292 4.37347412 15.42654419 C4.35125351 17.57677549 4.30109198 19.72528074 4.25 21.875 C4.22991614 23.3411216 4.21166868 24.80726958 4.1953125 26.2734375 C4.15143811 29.84951008 4.08251443 33.42458631 4 37 C3.67 37 3.34 37 3 37 C2.9906543 36.11739502 2.98130859 35.23479004 2.97167969 34.32543945 C2.92753886 31.03543328 2.86587324 27.74670926 2.79248047 24.45727539 C2.76433986 23.03649808 2.74309092 21.61556622 2.72900391 20.19458008 C2.70747606 18.14584641 2.66078486 16.098957 2.609375 14.05078125 C2.58842773 12.82012939 2.56748047 11.58947754 2.54589844 10.3215332 C1.90884068 6.44533874 0.74465937 4.76003561 -2 2 C-4.05579664 1.19398524 -4.05579664 1.19398524 -6.25 1.1875 C-7.02730469 1.14109375 -7.80460937 1.0946875 -8.60546875 1.046875 C-9.39566406 1.03140625 -10.18585937 1.0159375 -11 1 C-12.16982422 0.97679687 -12.16982422 0.97679687 -13.36328125 0.953125 C-15.24220505 0.93977563 -17.12133928 0.96584253 -19 1 C-19 0.34 -19 -0.32 -19 -1 C-16.95999027 -1.22397733 -14.91783811 -1.42848537 -12.875 -1.625 C-11.73804688 -1.74101562 -10.60109375 -1.85703125 -9.4296875 -1.9765625 C-5.67168825 -2.00224359 -3.36897203 -1.67048751 0 0 Z " fill="#245478" transform="translate(62,13)"/>
<path d="M0 0 C0.66 0 1.32 0 2 0 C1.67 4.29 1.34 8.58 1 13 C-0.65 12.67 -2.3 12.34 -4 12 C-6.33454661 13.83358335 -6.33454661 13.83358335 -8 16 C-8 11.20350106 -7.04100987 10.41228578 -4 6.875 C-1.00401515 3.83502909 -1.00401515 3.83502909 0 0 Z " fill="#907643" transform="translate(56,20)"/>
<path d="M0 0 C0.66 0.33 1.32 0.66 2 1 C2 8.59 2 16.18 2 24 C1.01 24 0.02 24 -1 24 C-0.67 22.35 -0.34 20.7 0 19 C-1.32 18.67 -2.64 18.34 -4 18 C-4 17.34 -4 16.68 -4 16 C-2.35 16 -0.7 16 1 16 C0.67 12.7 0.34 9.4 0 6 C-1.65 6.66 -3.3 7.32 -5 8 C-3.62845496 5.04590299 -2.01136276 2.55991624 0 0 Z " fill="#284A66" transform="translate(51,32)"/>
<path d="M0 0 C0.66 0.33 1.32 0.66 2 1 C2 1.66 2 2.32 2 3 C2.99 3.33 3.98 3.66 5 4 C4.01 5.485 4.01 5.485 3 7 C1 7 1 7 -0.625 5.5 C-1.07875 5.005 -1.5325 4.51 -2 4 C-3.65 5.32 -5.3 6.64 -7 8 C-7 5.69 -7 3.38 -7 1 C-5.515 1.99 -5.515 1.99 -4 3 C-2.68 2.01 -1.36 1.02 0 0 Z " fill="#25465F" transform="translate(36,33)"/>
<path d="M0 0 C0.33 0 0.66 0 1 0 C1.33 6.27 1.66 12.54 2 19 C3.32 18.67 4.64 18.34 6 18 C5.25 19.9375 5.25 19.9375 4 22 C2.68 22.33 1.36 22.66 0 23 C0 15.41 0 7.82 0 0 Z " fill="#1A3A56" transform="translate(22,24)"/>
<path d="M0 0 C2.475 0.99 2.475 0.99 5 2 C3.875 4 3.875 4 2 6 C-1.1875 6.25 -1.1875 6.25 -4 6 C-2.68 4.02 -1.36 2.04 0 0 Z " fill="#7C5E30" transform="translate(21,51)"/>
<path d="M0 0 C0.33 0 0.66 0 1 0 C1.042721 1.66611905 1.04063832 3.33382885 1 5 C0 6 0 6 -2.5625 6.0625 C-3.7690625 6.0315625 -3.7690625 6.0315625 -5 6 C-5.33 4.35 -5.66 2.7 -6 1 C-4.7934375 1.0309375 -4.7934375 1.0309375 -3.5625 1.0625 C-1.06645115 1.29633621 -1.06645115 1.29633621 0 0 Z " fill="#123862" transform="translate(50,51)"/>
<path d="M0 0 C5.57142857 5.14285714 5.57142857 5.14285714 6 9 C3.28071483 8.62492618 2.15781339 8.15781339 0.1875 6.1875 C-1 4 -1 4 -0.6875 1.75 C-0.460625 1.1725 -0.23375 0.595 0 0 Z " fill="#82BED5" transform="translate(30,25)"/>
<path d="M0 0 C0 1.32 0 2.64 0 4 C-0.99 4 -1.98 4 -3 4 C-3 3.34 -3 2.68 -3 2 C-3.66 2 -4.32 2 -5 2 C-5.33 2.99 -5.66 3.98 -6 5 C-6.99 5 -7.98 5 -9 5 C-9 3.68 -9 2.36 -9 1 C-5.8035914 -0.06546953 -3.34252724 -0.07427838 0 0 Z " fill="#778B9C" transform="translate(40,51)"/>
<path d="M0 0 C0.33 0.99 0.66 1.98 1 3 C-0.43359375 5.26171875 -0.43359375 5.26171875 -2.4375 7.6875 C-3.09621094 8.49574219 -3.75492188 9.30398437 -4.43359375 10.13671875 C-4.95050781 10.75160156 -5.46742187 11.36648437 -6 12 C-6.33 11.34 -6.66 10.68 -7 10 C-4.83201268 4.5229794 -4.83201268 4.5229794 -1.8125 2.625 C-1.214375 2.41875 -0.61625 2.2125 0 2 C0 1.34 0 0.68 0 0 Z " fill="#EBE0A2" transform="translate(49,27)"/>
<path d="M0 0 C0.99 0 1.98 0 3 0 C3 2.97 3 5.94 3 9 C2.01 9 1.02 9 0 9 C0 6.03 0 3.06 0 0 Z " fill="#6DB3D0" transform="translate(23,31)"/>
<path d="M0 0 C4.8 2.46153846 4.8 2.46153846 5.8125 5.1875 C5.874375 5.785625 5.93625 6.38375 6 7 C5.01 7.66 4.02 8.32 3 9 C2 8 2 8 1.9375 5.4375 C1.958125 4.633125 1.97875 3.82875 2 3 C1.34 3 0.68 3 0 3 C0 2.01 0 1.02 0 0 Z " fill="#1A4870" transform="translate(24,25)"/>
<path d="M0 0 C0.99 0.99 1.98 1.98 3 3 C0.03 5.475 0.03 5.475 -3 8 C-3 3.73173127 -2.62386487 3.06117568 0 0 Z " fill="#B19457" transform="translate(51,28)"/>
<path d="M0 0 C0 2.31 0 4.62 0 7 C-0.99 7.33 -1.98 7.66 -3 8 C-3 5.69 -3 3.38 -3 1 C-1 0 -1 0 0 0 Z " fill="#71B7D5" transform="translate(52,37)"/>
<path d="M0 0 C-1.65 1.32 -3.3 2.64 -5 4 C-5.99 3.34 -6.98 2.68 -8 2 C-8 1.34 -8 0.68 -8 0 C-4.71303767 -0.79953138 -3.28976808 -1.09658936 0 0 Z " fill="#C1A666" transform="translate(45,41)"/>
<path d="M0 0 C0.66 0.33 1.32 0.66 2 1 C2 1.66 2 2.32 2 3 C2.66 3 3.32 3 4 3 C3.67 3.99 3.34 4.98 3 6 C2.01 6 1.02 6 0 6 C-0.38218767 4.34385343 -0.71395102 2.67542976 -1 1 C-0.67 0.67 -0.34 0.34 0 0 Z " fill="#40789B" transform="translate(43,44)"/>
<path d="M0 0 C0.33 0 0.66 0 1 0 C1 2.64 1 5.28 1 8 C0.01 8 -0.98 8 -2 8 C-2.33 8.99 -2.66 9.98 -3 11 C-3 9.02 -3 7.04 -3 5 C-2.01 5 -1.02 5 0 5 C0 3.35 0 1.7 0 0 Z " fill="#387094" transform="translate(26,35)"/>
<path d="M0 0 C1.65 0 3.3 0 5 0 C5 2.97 5 5.94 5 9 C4.34 8.67 3.68 8.34 3 8 C3.33 6.35 3.66 4.7 4 3 C2.68 2.67 1.36 2.34 0 2 C0 1.34 0 0.68 0 0 Z " fill="#285881" transform="translate(47,48)"/>
<path d="M0 0 C1.485 0.99 1.485 0.99 3 2 C3.6875 5.625 3.6875 5.625 4 9 C3.01 9 2.02 9 1 9 C0.67 6.03 0.34 3.06 0 0 Z " fill="#336482" transform="translate(26,33)"/>
<path d="M0 0 C0.33 0 0.66 0 1 0 C1 2.31 1 4.62 1 7 C0.01 6.34 -0.98 5.68 -2 5 C-2.99 5.495 -2.99 5.495 -4 6 C-2.84826645 3.53199953 -1.95216435 1.95216435 0 0 Z " fill="#162C41" transform="translate(45,40)"/>
</svg>
